<svg width="420" height="24" viewBox="0 0 420 24" fill="none" xmlns="http://www.w3.org/2000/svg">
<rect y="5" width="16" height="15" rx="2" fill="#2196F3"/>
<path d="M3.95703 12.7517L3.88825 12.686L3.81923 12.7514L2.93123 13.5926L2.85486 13.6649L2.93097 13.7375L6.42671 17.0724L6.49574 17.1382L6.56476 17.0724L14.069 9.91352L14.1449 9.84116L14.069 9.76881L13.1873 8.92764L13.1183 8.86183L13.0493 8.92761L6.49577 15.1735L3.95703 12.7517Z" fill="white" stroke="white" stroke-width="0.2"/>
<path d="M31.8115 12.3447C31.8115 13.32 31.6475 14.1722 31.3193 14.9014C30.9912 15.626 30.5264 16.1797 29.9248 16.5625C29.3232 16.9453 28.6214 17.1367 27.8193 17.1367C27.0355 17.1367 26.3405 16.9453 25.7344 16.5625C25.1283 16.1751 24.6566 15.626 24.3193 14.915C23.9867 14.1995 23.8158 13.3724 23.8066 12.4336V11.7158C23.8066 10.7588 23.973 9.91341 24.3057 9.17969C24.6383 8.44596 25.1077 7.88542 25.7139 7.49805C26.3245 7.10612 27.0218 6.91016 27.8057 6.91016C28.6032 6.91016 29.305 7.10384 29.9111 7.49121C30.5218 7.87402 30.9912 8.43229 31.3193 9.16602C31.6475 9.89518 31.8115 10.7451 31.8115 11.7158V12.3447ZM30.5059 11.7021C30.5059 10.5218 30.2689 9.61719 29.7949 8.98828C29.321 8.35482 28.6579 8.03809 27.8057 8.03809C26.9762 8.03809 26.3223 8.35482 25.8438 8.98828C25.3698 9.61719 25.126 10.4922 25.1123 11.6133V12.3447C25.1123 13.4886 25.3516 14.3887 25.8301 15.0449C26.3132 15.6966 26.9762 16.0225 27.8193 16.0225C28.667 16.0225 29.3232 15.7148 29.7881 15.0996C30.2529 14.4798 30.4922 13.5934 30.5059 12.4404V11.7021ZM38.3087 15.0381C38.3087 14.6963 38.1788 14.432 37.919 14.2451C37.6638 14.0537 37.2149 13.8896 36.5723 13.7529C35.9343 13.6162 35.4262 13.4521 35.0479 13.2607C34.6742 13.0693 34.3962 12.8415 34.2139 12.5771C34.0362 12.3128 33.9473 11.9984 33.9473 11.6338C33.9473 11.0277 34.2026 10.515 34.713 10.0957C35.2279 9.67643 35.8842 9.4668 36.6817 9.4668C37.5203 9.4668 38.1993 9.68327 38.7188 10.1162C39.2429 10.5492 39.505 11.1029 39.505 11.7773H38.2335C38.2335 11.431 38.0854 11.1325 37.7891 10.8818C37.4975 10.6312 37.1283 10.5059 36.6817 10.5059C36.2214 10.5059 35.8614 10.6061 35.6016 10.8066C35.3419 11.0072 35.212 11.2692 35.212 11.5928C35.212 11.8981 35.3328 12.1283 35.5743 12.2832C35.8158 12.4382 36.2511 12.5863 36.88 12.7275C37.5134 12.8688 38.0261 13.0374 38.418 13.2334C38.81 13.4294 39.0994 13.6663 39.2862 13.9443C39.4776 14.2178 39.5733 14.5527 39.5733 14.9492C39.5733 15.61 39.309 16.141 38.7804 16.542C38.2517 16.9385 37.5658 17.1367 36.7227 17.1367C36.1303 17.1367 35.6062 17.0319 35.1505 16.8223C34.6947 16.6126 34.337 16.321 34.0772 15.9473C33.822 15.569 33.6944 15.1611 33.6944 14.7236H34.9591C34.9818 15.1475 35.1505 15.4847 35.4649 15.7354C35.7839 15.9814 36.2032 16.1045 36.7227 16.1045C37.2013 16.1045 37.5841 16.0088 37.8712 15.8174C38.1628 15.6214 38.3087 15.3617 38.3087 15.0381ZM37.5089 6.5H39.0401L37.2081 8.50977H36.1895L37.5089 6.5ZM48.1896 15.2568L49.6115 9.60352H50.8761L48.7228 17H47.6974L45.8996 11.3945L44.1496 17H43.1242L40.9777 9.60352H42.2355L43.6916 15.1406L45.4142 9.60352H46.4328L48.1896 15.2568ZM53.9621 17H52.6975V9.60352H53.9621V17ZM52.595 7.6416C52.595 7.43652 52.6565 7.26335 52.7795 7.12207C52.9071 6.98079 53.094 6.91016 53.3401 6.91016C53.5862 6.91016 53.773 6.98079 53.9006 7.12207C54.0282 7.26335 54.092 7.43652 54.092 7.6416C54.092 7.84668 54.0282 8.01758 53.9006 8.1543C53.773 8.29102 53.5862 8.35938 53.3401 8.35938C53.094 8.35938 52.9071 8.29102 52.7795 8.1543C52.6565 8.01758 52.595 7.84668 52.595 7.6416ZM60.9788 17C60.9059 16.8542 60.8467 16.5944 60.8011 16.2207C60.2132 16.8314 59.5114 17.1367 58.6956 17.1367C57.9665 17.1367 57.3672 16.9316 56.8978 16.5215C56.4329 16.1068 56.2005 15.5827 56.2005 14.9492C56.2005 14.179 56.4922 13.582 57.0755 13.1582C57.6634 12.7298 58.4883 12.5156 59.5501 12.5156H60.7806V11.9346C60.7806 11.4925 60.6484 11.1416 60.3841 10.8818C60.1198 10.6175 59.7301 10.4854 59.2152 10.4854C58.764 10.4854 58.3857 10.5993 58.0804 10.8271C57.7751 11.055 57.6224 11.3307 57.6224 11.6543H56.3509C56.3509 11.2852 56.4808 10.9297 56.7405 10.5879C57.0049 10.2415 57.3603 9.9681 57.807 9.76758C58.2581 9.56706 58.7526 9.4668 59.2904 9.4668C60.1426 9.4668 60.8102 9.68099 61.2933 10.1094C61.7764 10.5332 62.027 11.1188 62.0452 11.8662V15.2705C62.0452 15.9495 62.1318 16.4896 62.305 16.8906V17H60.9788ZM58.8802 16.0361C59.2767 16.0361 59.6527 15.9336 60.0081 15.7285C60.3636 15.5234 60.6211 15.2568 60.7806 14.9287V13.4111H59.7894C58.2399 13.4111 57.4652 13.8646 57.4652 14.7715C57.4652 15.168 57.5973 15.4779 57.8616 15.7012C58.126 15.9245 58.4655 16.0361 58.8802 16.0361ZM64.14 13.2402C64.14 12.1055 64.4089 11.194 64.9467 10.5059C65.4844 9.81315 66.1885 9.4668 67.059 9.4668C67.9249 9.4668 68.6107 9.76302 69.1166 10.3555V6.5H70.3812V17H69.2191L69.1576 16.207C68.6518 16.8268 67.9477 17.1367 67.0453 17.1367C66.1885 17.1367 65.489 16.7858 64.9467 16.084C64.4089 15.3822 64.14 14.4661 64.14 13.3359V13.2402ZM65.4047 13.3838C65.4047 14.2223 65.5779 14.8786 65.9242 15.3525C66.2706 15.8265 66.7491 16.0635 67.3598 16.0635C68.1618 16.0635 68.7475 15.7035 69.1166 14.9834V11.5859C68.7383 10.8887 68.1573 10.54 67.3734 10.54C66.7536 10.54 66.2706 10.7793 65.9242 11.2578C65.5779 11.7363 65.4047 12.445 65.4047 13.3838ZM75.7368 16.1045C76.188 16.1045 76.5822 15.9678 76.9194 15.6943C77.2567 15.4209 77.4435 15.0791 77.48 14.6689H78.6763C78.6535 15.0928 78.5076 15.4961 78.2388 15.8789C77.9699 16.2617 77.6098 16.5671 77.1587 16.7949C76.7121 17.0228 76.2381 17.1367 75.7368 17.1367C74.7296 17.1367 73.9276 16.8018 73.3305 16.1318C72.7381 15.4574 72.4419 14.5368 72.4419 13.3701V13.1582C72.4419 12.4382 72.574 11.7979 72.8384 11.2373C73.1027 10.6768 73.4809 10.2415 73.9731 9.93164C74.4699 9.62174 75.0555 9.4668 75.73 9.4668C76.5594 9.4668 77.2475 9.71517 77.7944 10.2119C78.3458 10.7087 78.6398 11.3535 78.6763 12.1465H77.48C77.4435 11.668 77.2612 11.276 76.9331 10.9707C76.6095 10.6608 76.2085 10.5059 75.73 10.5059C75.0874 10.5059 74.5884 10.7383 74.2329 11.2031C73.882 11.6634 73.7065 12.3311 73.7065 13.2061V13.4453C73.7065 14.2975 73.882 14.9538 74.2329 15.4141C74.5838 15.8743 75.0851 16.1045 75.7368 16.1045ZM81.7076 15.9678H86.0347V17H80.1627V16.0703L84.2437 10.6494H80.2242V9.60352H85.8296V10.499L81.7076 15.9678ZM92.4498 17C92.3769 16.8542 92.3177 16.5944 92.2721 16.2207C91.6842 16.8314 90.9824 17.1367 90.1666 17.1367C89.4375 17.1367 88.8382 16.9316 88.3688 16.5215C87.9039 16.1068 87.6715 15.5827 87.6715 14.9492C87.6715 14.179 87.9632 13.582 88.5465 13.1582C89.1344 12.7298 89.9593 12.5156 91.0211 12.5156H92.2516V11.9346C92.2516 11.4925 92.1194 11.1416 91.8551 10.8818C91.5908 10.6175 91.2011 10.4854 90.6862 10.4854C90.235 10.4854 89.8567 10.5993 89.5514 10.8271C89.2461 11.055 89.0934 11.3307 89.0934 11.6543H87.8219C87.8219 11.2852 87.9518 10.9297 88.2116 10.5879C88.4759 10.2415 88.8314 9.9681 89.278 9.76758C89.7291 9.56706 90.2236 9.4668 90.7614 9.4668C91.6136 9.4668 92.2812 9.68099 92.7643 10.1094C93.2474 10.5332 93.498 11.1188 93.5163 11.8662V15.2705C93.5163 15.9495 93.6028 16.4896 93.776 16.8906V17H92.4498ZM90.3512 16.0361C90.7477 16.0361 91.1237 15.9336 91.4791 15.7285C91.8346 15.5234 92.0921 15.2568 92.2516 14.9287V13.4111H91.2604C89.7109 13.4111 88.9362 13.8646 88.9362 14.7715C88.9362 15.168 89.0683 15.4779 89.3327 15.7012C89.597 15.9245 89.9365 16.0361 90.3512 16.0361ZM97.1081 9.60352L97.1423 10.4238C97.6846 9.78581 98.4161 9.4668 99.3366 9.4668C100.371 9.4668 101.075 9.86328 101.449 10.6562C101.695 10.3008 102.014 10.0137 102.406 9.79492C102.802 9.57617 103.27 9.4668 103.807 9.4668C105.43 9.4668 106.255 10.3258 106.282 12.0439V17H105.017V12.1191C105.017 11.5905 104.897 11.1963 104.655 10.9365C104.413 10.6722 104.008 10.54 103.438 10.54C102.969 10.54 102.579 10.6813 102.269 10.9639C101.959 11.2419 101.779 11.6178 101.729 12.0918V17H100.458V12.1533C100.458 11.0778 99.9314 10.54 98.8786 10.54C98.0492 10.54 97.4818 10.8932 97.1765 11.5996V17H95.9118V9.60352H97.1081ZM113.883 17H112.618V9.60352H113.883V17ZM112.516 7.6416C112.516 7.43652 112.577 7.26335 112.7 7.12207C112.828 6.98079 113.015 6.91016 113.261 6.91016C113.507 6.91016 113.694 6.98079 113.821 7.12207C113.949 7.26335 114.013 7.43652 114.013 7.6416C114.013 7.84668 113.949 8.01758 113.821 8.1543C113.694 8.29102 113.507 8.35938 113.261 8.35938C113.015 8.35938 112.828 8.29102 112.7 8.1543C112.577 8.01758 112.516 7.84668 112.516 7.6416ZM117.522 15.9678H121.85V17H115.978V16.0703L120.059 10.6494H116.039V9.60352H121.644V10.499L117.522 15.9678ZM118.144 7.65527C118.144 7.4502 118.206 7.27702 118.329 7.13574C118.457 6.99447 118.644 6.92383 118.89 6.92383C119.136 6.92383 119.323 6.99447 119.45 7.13574C119.578 7.27702 119.642 7.4502 119.642 7.65527C119.642 7.86035 119.578 8.03125 119.45 8.16797C119.323 8.30469 119.136 8.37305 118.89 8.37305C118.644 8.37305 118.457 8.30469 118.329 8.16797C118.206 8.03125 118.144 7.86035 118.144 7.65527ZM132.157 17C132.084 16.8542 132.025 16.5944 131.98 16.2207C131.392 16.8314 130.69 17.1367 129.874 17.1367C129.145 17.1367 128.546 16.9316 128.076 16.5215C127.611 16.1068 127.379 15.5827 127.379 14.9492C127.379 14.179 127.671 13.582 128.254 13.1582C128.842 12.7298 129.667 12.5156 130.729 12.5156H131.959V11.9346C131.959 11.4925 131.827 11.1416 131.563 10.8818C131.298 10.6175 130.909 10.4854 130.394 10.4854C129.942 10.4854 129.564 10.5993 129.259 10.8271C128.954 11.055 128.801 11.3307 128.801 11.6543H127.529C127.529 11.2852 127.659 10.9297 127.919 10.5879C128.183 10.2415 128.539 9.9681 128.985 9.76758C129.437 9.56706 129.931 9.4668 130.469 9.4668C131.321 9.4668 131.989 9.68099 132.472 10.1094C132.955 10.5332 133.206 11.1188 133.224 11.8662V15.2705C133.224 15.9495 133.31 16.4896 133.484 16.8906V17H132.157ZM130.059 16.0361C130.455 16.0361 130.831 15.9336 131.187 15.7285C131.542 15.5234 131.8 15.2568 131.959 14.9287V13.4111H130.968C129.418 13.4111 128.644 13.8646 128.644 14.7715C128.644 15.168 128.776 15.4779 129.04 15.7012C129.304 15.9245 129.644 16.0361 130.059 16.0361ZM137.691 13.5752L136.898 14.4023V17H135.633V6.5H136.898V12.8506L137.574 12.0371L139.878 9.60352H141.416L138.538 12.6934L141.751 17H140.268L137.691 13.5752ZM145.972 16.1045C146.423 16.1045 146.817 15.9678 147.155 15.6943C147.492 15.4209 147.679 15.0791 147.715 14.6689H148.911C148.889 15.0928 148.743 15.4961 148.474 15.8789C148.205 16.2617 147.845 16.5671 147.394 16.7949C146.947 17.0228 146.473 17.1367 145.972 17.1367C144.965 17.1367 144.163 16.8018 143.566 16.1318C142.973 15.4574 142.677 14.5368 142.677 13.3701V13.1582C142.677 12.4382 142.809 11.7979 143.074 11.2373C143.338 10.6768 143.716 10.2415 144.208 9.93164C144.705 9.62174 145.291 9.4668 145.965 9.4668C146.795 9.4668 147.483 9.71517 148.03 10.2119C148.581 10.7087 148.875 11.3535 148.911 12.1465H147.715C147.679 11.668 147.496 11.276 147.168 10.9707C146.845 10.6608 146.444 10.5059 145.965 10.5059C145.323 10.5059 144.824 10.7383 144.468 11.2031C144.117 11.6634 143.942 12.3311 143.942 13.2061V13.4453C143.942 14.2975 144.117 14.9538 144.468 15.4141C144.819 15.8743 145.32 16.1045 145.972 16.1045ZM153.823 17.1367C152.82 17.1367 152.004 16.8086 151.375 16.1523C150.746 15.4915 150.432 14.6097 150.432 13.5068V13.2744C150.432 12.5407 150.571 11.8867 150.849 11.3125C151.132 10.7337 151.523 10.2826 152.025 9.95898C152.531 9.63086 153.077 9.4668 153.665 9.4668C154.627 9.4668 155.374 9.78353 155.908 10.417C156.441 11.0505 156.707 11.9574 156.707 13.1377V13.6641H151.697C151.715 14.3932 151.927 14.9834 152.332 15.4346C152.743 15.8812 153.262 16.1045 153.891 16.1045C154.338 16.1045 154.716 16.0133 155.026 15.8311C155.336 15.6488 155.607 15.4072 155.839 15.1064L156.612 15.708C155.992 16.6605 155.062 17.1367 153.823 17.1367ZM153.665 10.5059C153.155 10.5059 152.727 10.6927 152.38 11.0664C152.034 11.4355 151.82 11.9551 151.738 12.625H155.443V12.5293C155.406 11.8867 155.233 11.39 154.923 11.0391C154.613 10.6836 154.194 10.5059 153.665 10.5059ZM164.845 13.3838C164.845 14.5094 164.588 15.4163 164.073 16.1045C163.558 16.7926 162.86 17.1367 161.981 17.1367C161.083 17.1367 160.377 16.8519 159.862 16.2822V19.8438H158.597V9.60352H159.752L159.814 10.4238C160.329 9.78581 161.044 9.4668 161.96 9.4668C162.849 9.4668 163.551 9.80176 164.066 10.4717C164.585 11.1416 164.845 12.0736 164.845 13.2676V13.3838ZM163.581 13.2402C163.581 12.4062 163.403 11.7477 163.047 11.2646C162.692 10.7816 162.204 10.54 161.584 10.54C160.819 10.54 160.245 10.8796 159.862 11.5586V15.0928C160.24 15.7673 160.819 16.1045 161.598 16.1045C162.204 16.1045 162.685 15.8652 163.04 15.3867C163.4 14.9036 163.581 14.1882 163.581 13.2402ZM168.594 7.8125V9.60352H169.975V10.5811H168.594V15.168C168.594 15.4642 168.656 15.6875 168.779 15.8379C168.902 15.9837 169.112 16.0566 169.408 16.0566C169.554 16.0566 169.754 16.0293 170.009 15.9746V17C169.677 17.0911 169.353 17.1367 169.039 17.1367C168.473 17.1367 168.047 16.9658 167.76 16.624C167.473 16.2822 167.33 15.7969 167.33 15.168V10.5811H165.983V9.60352H167.33V7.8125H168.594ZM176.445 16.2686C175.953 16.8473 175.23 17.1367 174.278 17.1367C173.49 17.1367 172.888 16.9089 172.473 16.4531C172.063 15.9928 171.856 15.3138 171.851 14.416V9.60352H173.116V14.3818C173.116 15.5029 173.572 16.0635 174.483 16.0635C175.449 16.0635 176.092 15.7035 176.411 14.9834V9.60352H177.675V17H176.472L176.445 16.2686ZM181.329 9.60352V17.8545C181.329 19.2764 180.684 19.9873 179.394 19.9873C179.116 19.9873 178.859 19.9463 178.622 19.8643V18.8525C178.768 18.889 178.959 18.9072 179.196 18.9072C179.479 18.9072 179.693 18.8298 179.839 18.6748C179.989 18.5244 180.064 18.2601 180.064 17.8818V9.60352H181.329ZM179.934 7.6416C179.934 7.44108 179.996 7.27018 180.119 7.12891C180.246 6.98307 180.431 6.91016 180.673 6.91016C180.919 6.91016 181.105 6.98079 181.233 7.12207C181.361 7.26335 181.424 7.43652 181.424 7.6416C181.424 7.84668 181.361 8.01758 181.233 8.1543C181.105 8.29102 180.919 8.35938 180.673 8.35938C180.426 8.35938 180.242 8.29102 180.119 8.1543C179.996 8.01758 179.934 7.84668 179.934 7.6416ZM189.651 15.708C189.328 16.2093 188.904 16.583 188.38 16.8291H188.386L187.99 17.1367C187.475 17.5514 187.218 17.9548 187.218 18.3467C187.218 18.6748 187.395 18.8389 187.751 18.8389C187.969 18.8389 188.197 18.7796 188.434 18.6611L188.523 19.4883C188.204 19.6888 187.84 19.7891 187.429 19.7891C187.024 19.7891 186.703 19.6706 186.466 19.4336C186.233 19.1966 186.117 18.8822 186.117 18.4902C186.117 17.998 186.34 17.5469 186.787 17.1367C185.793 17.1185 184.991 16.7812 184.381 16.125C183.775 15.4642 183.471 14.5892 183.471 13.5V13.2744C183.471 12.5407 183.61 11.8867 183.888 11.3125C184.171 10.7337 184.563 10.2826 185.064 9.95898C185.57 9.63086 186.117 9.4668 186.705 9.4668C187.666 9.4668 188.414 9.78353 188.947 10.417C189.48 11.0505 189.747 11.9574 189.747 13.1377V13.6641H184.736C184.754 14.3932 184.966 14.9834 185.372 15.4346C185.782 15.8812 186.302 16.1045 186.93 16.1045C187.377 16.1045 187.755 16.0133 188.065 15.8311C188.375 15.6488 188.646 15.4072 188.879 15.1064L189.651 15.708ZM186.705 10.5059C186.194 10.5059 185.766 10.6927 185.42 11.0664C185.073 11.4355 184.859 11.9551 184.777 12.625H188.482V12.5293C188.446 11.8867 188.273 11.39 187.963 11.0391C187.653 10.6836 187.233 10.5059 186.705 10.5059ZM270.638 17H269.374V9.60352H270.638V17ZM269.271 7.6416C269.271 7.43652 269.333 7.26335 269.456 7.12207C269.583 6.98079 269.77 6.91016 270.016 6.91016C270.262 6.91016 270.449 6.98079 270.577 7.12207C270.704 7.26335 270.768 7.43652 270.768 7.6416C270.768 7.84668 270.704 8.01758 270.577 8.1543C270.449 8.29102 270.262 8.35938 270.016 8.35938C269.77 8.35938 269.583 8.29102 269.456 8.1543C269.333 8.01758 269.271 7.84668 269.271 7.6416Z" fill="#757575"/>
<path d="M199.378 12.9736H197.04V17H195.721V7.04688H199.016C200.137 7.04688 200.998 7.30208 201.6 7.8125C202.206 8.32292 202.509 9.06576 202.509 10.041C202.509 10.6608 202.34 11.2008 202.003 11.6611C201.67 12.1214 201.205 12.4655 200.608 12.6934L202.946 16.918V17H201.538L199.378 12.9736ZM197.04 11.9004H199.057C199.708 11.9004 200.226 11.7318 200.608 11.3945C200.996 11.0573 201.189 10.6061 201.189 10.041C201.189 9.42578 201.005 8.9541 200.636 8.62598C200.271 8.29785 199.742 8.13151 199.05 8.12695H197.04V11.9004ZM207.646 17.1367C206.643 17.1367 205.827 16.8086 205.198 16.1523C204.569 15.4915 204.255 14.6097 204.255 13.5068V13.2744C204.255 12.5407 204.394 11.8867 204.672 11.3125C204.954 10.7337 205.346 10.2826 205.848 9.95898C206.354 9.63086 206.9 9.4668 207.488 9.4668C208.45 9.4668 209.197 9.78353 209.73 10.417C210.264 11.0505 210.53 11.9574 210.53 13.1377V13.6641H205.52C205.538 14.3932 205.75 14.9834 206.155 15.4346C206.565 15.8812 207.085 16.1045 207.714 16.1045C208.16 16.1045 208.539 16.0133 208.849 15.8311C209.159 15.6488 209.43 15.4072 209.662 15.1064L210.435 15.708C209.815 16.6605 208.885 17.1367 207.646 17.1367ZM207.488 10.5059C206.978 10.5059 206.549 10.6927 206.203 11.0664C205.857 11.4355 205.643 11.9551 205.561 12.625H209.266V12.5293C209.229 11.8867 209.056 11.39 208.746 11.0391C208.436 10.6836 208.017 10.5059 207.488 10.5059ZM212.119 13.2402C212.119 12.0872 212.386 11.1712 212.919 10.4922C213.452 9.80859 214.159 9.4668 215.038 9.4668C215.941 9.4668 216.645 9.78581 217.15 10.4238L217.212 9.60352H218.367V16.8223C218.367 17.7793 218.082 18.5335 217.513 19.085C216.948 19.6364 216.187 19.9121 215.23 19.9121C214.696 19.9121 214.175 19.7982 213.664 19.5703C213.154 19.3424 212.764 19.0303 212.495 18.6338L213.151 17.875C213.694 18.5449 214.357 18.8799 215.141 18.8799C215.756 18.8799 216.234 18.7067 216.576 18.3604C216.923 18.014 217.096 17.5264 217.096 16.8975V16.2617C216.59 16.8451 215.899 17.1367 215.024 17.1367C214.159 17.1367 213.457 16.7881 212.919 16.0908C212.386 15.3936 212.119 14.4434 212.119 13.2402ZM213.391 13.3838C213.391 14.2178 213.562 14.874 213.903 15.3525C214.245 15.8265 214.724 16.0635 215.339 16.0635C216.136 16.0635 216.722 15.7012 217.096 14.9766V11.5996C216.708 10.8932 216.127 10.54 215.353 10.54C214.737 10.54 214.257 10.7793 213.91 11.2578C213.564 11.7363 213.391 12.445 213.391 13.3838ZM225.268 16.2686C224.776 16.8473 224.053 17.1367 223.101 17.1367C222.312 17.1367 221.711 16.9089 221.296 16.4531C220.886 15.9928 220.679 15.3138 220.674 14.416V9.60352H221.939V14.3818C221.939 15.5029 222.394 16.0635 223.306 16.0635C224.272 16.0635 224.915 15.7035 225.234 14.9834V9.60352H226.498V17H225.295L225.268 16.2686ZM230.22 17H228.955V6.5H230.22V17ZM237.237 17C237.164 16.8542 237.104 16.5944 237.059 16.2207C236.471 16.8314 235.769 17.1367 234.953 17.1367C234.224 17.1367 233.625 16.9316 233.156 16.5215C232.691 16.1068 232.458 15.5827 232.458 14.9492C232.458 14.179 232.75 13.582 233.333 13.1582C233.921 12.7298 234.746 12.5156 235.808 12.5156H237.038V11.9346C237.038 11.4925 236.906 11.1416 236.642 10.8818C236.378 10.6175 235.988 10.4854 235.473 10.4854C235.022 10.4854 234.644 10.5993 234.338 10.8271C234.033 11.055 233.88 11.3307 233.88 11.6543H232.609C232.609 11.2852 232.739 10.9297 232.998 10.5879C233.263 10.2415 233.618 9.9681 234.065 9.76758C234.516 9.56706 235.01 9.4668 235.548 9.4668C236.4 9.4668 237.068 9.68099 237.551 10.1094C238.034 10.5332 238.285 11.1188 238.303 11.8662V15.2705C238.303 15.9495 238.39 16.4896 238.563 16.8906V17H237.237ZM235.138 16.0361C235.534 16.0361 235.91 15.9336 236.266 15.7285C236.621 15.5234 236.879 15.2568 237.038 14.9287V13.4111H236.047C234.498 13.4111 233.723 13.8646 233.723 14.7715C233.723 15.168 233.855 15.4779 234.119 15.7012C234.384 15.9245 234.723 16.0361 235.138 16.0361ZM241.895 9.60352L241.929 10.4238C242.471 9.78581 243.203 9.4668 244.123 9.4668C245.158 9.4668 245.862 9.86328 246.236 10.6562C246.482 10.3008 246.801 10.0137 247.193 9.79492C247.589 9.57617 248.056 9.4668 248.594 9.4668C250.217 9.4668 251.041 10.3258 251.069 12.0439V17H249.804V12.1191C249.804 11.5905 249.683 11.1963 249.442 10.9365C249.2 10.6722 248.795 10.54 248.225 10.54C247.756 10.54 247.366 10.6813 247.056 10.9639C246.746 11.2419 246.566 11.6178 246.516 12.0918V17H245.245V12.1533C245.245 11.0778 244.718 10.54 243.665 10.54C242.836 10.54 242.269 10.8932 241.963 11.5996V17H240.699V9.60352H241.895ZM254.777 17H253.512V9.60352H254.777V17ZM253.41 7.6416C253.41 7.43652 253.471 7.26335 253.594 7.12207C253.722 6.98079 253.909 6.91016 254.155 6.91016C254.401 6.91016 254.588 6.98079 254.715 7.12207C254.843 7.26335 254.907 7.43652 254.907 7.6416C254.907 7.84668 254.843 8.01758 254.715 8.1543C254.588 8.29102 254.401 8.35938 254.155 8.35938C253.909 8.35938 253.722 8.29102 253.594 8.1543C253.471 8.01758 253.41 7.84668 253.41 7.6416ZM258.423 9.60352L258.464 10.5332C259.03 9.82227 259.768 9.4668 260.679 9.4668C262.242 9.4668 263.031 10.3486 263.044 12.1123V17H261.78V12.1055C261.775 11.5723 261.652 11.1781 261.411 10.9229C261.174 10.6676 260.802 10.54 260.296 10.54C259.886 10.54 259.526 10.6494 259.216 10.8682C258.906 11.0869 258.665 11.374 258.492 11.7295V17H257.227V9.60352H258.423ZM278.492 13.1035V17H277.18V7.04688H280.85C281.94 7.04688 282.792 7.32487 283.407 7.88086C284.027 8.43685 284.337 9.17285 284.337 10.0889C284.337 11.055 284.034 11.8001 283.428 12.3242C282.826 12.8438 281.962 13.1035 280.837 13.1035H278.492ZM278.492 12.0303H280.85C281.552 12.0303 282.09 11.8662 282.464 11.5381C282.837 11.2054 283.024 10.7269 283.024 10.1025C283.024 9.51009 282.837 9.03613 282.464 8.68066C282.09 8.3252 281.577 8.14062 280.926 8.12695H278.492V12.0303ZM285.803 13.2334C285.803 12.5088 285.944 11.8571 286.227 11.2783C286.514 10.6995 286.91 10.2529 287.416 9.93848C287.926 9.62402 288.507 9.4668 289.159 9.4668C290.166 9.4668 290.98 9.81543 291.6 10.5127C292.224 11.21 292.536 12.1374 292.536 13.2949V13.3838C292.536 14.1038 292.397 14.751 292.119 15.3252C291.846 15.8949 291.451 16.3392 290.936 16.6582C290.426 16.9772 289.838 17.1367 289.173 17.1367C288.17 17.1367 287.357 16.7881 286.732 16.0908C286.113 15.3936 285.803 14.4707 285.803 13.3223V13.2334ZM287.074 13.3838C287.074 14.2041 287.263 14.8626 287.642 15.3594C288.024 15.8561 288.535 16.1045 289.173 16.1045C289.815 16.1045 290.326 15.8538 290.704 15.3525C291.082 14.8467 291.271 14.1403 291.271 13.2334C291.271 12.4222 291.078 11.766 290.69 11.2646C290.308 10.7588 289.797 10.5059 289.159 10.5059C288.535 10.5059 288.031 10.7542 287.648 11.251C287.266 11.7477 287.074 12.4587 287.074 13.3838ZM295.916 17H294.651V6.5H295.916V17ZM299.74 17H298.476V9.60352H299.74V17ZM298.373 7.6416C298.373 7.43652 298.435 7.26335 298.558 7.12207C298.685 6.98079 298.872 6.91016 299.118 6.91016C299.364 6.91016 299.551 6.98079 299.679 7.12207C299.806 7.26335 299.87 7.43652 299.87 7.6416C299.87 7.84668 299.806 8.01758 299.679 8.1543C299.551 8.29102 299.364 8.35938 299.118 8.35938C298.872 8.35938 298.685 8.29102 298.558 8.1543C298.435 8.01758 298.373 7.84668 298.373 7.6416ZM303.906 7.8125V9.60352H305.287V10.5811H303.906V15.168C303.906 15.4642 303.968 15.6875 304.091 15.8379C304.214 15.9837 304.424 16.0566 304.72 16.0566C304.866 16.0566 305.066 16.0293 305.321 15.9746V17C304.989 17.0911 304.665 17.1367 304.351 17.1367C303.786 17.1367 303.36 16.9658 303.072 16.624C302.785 16.2822 302.642 15.7969 302.642 15.168V10.5811H301.295V9.60352H302.642V7.8125H303.906ZM309.611 15.1475L311.333 9.60352H312.687L309.713 18.1416C309.253 19.3721 308.521 19.9873 307.519 19.9873L307.28 19.9668L306.808 19.8779V18.8525L307.15 18.8799C307.578 18.8799 307.911 18.7933 308.148 18.6201C308.389 18.4469 308.588 18.1302 308.742 17.6699L309.023 16.918L306.384 9.60352H307.765L309.611 15.1475ZM316.306 13.5752L315.513 14.4023V17H314.248V6.5H315.513V12.8506L316.19 12.0371L318.494 9.60352H320.032L317.154 12.6934L320.367 17H318.883L316.306 13.5752ZM327.479 15.708C327.155 16.2093 326.732 16.583 326.207 16.8291H326.214L325.818 17.1367C325.303 17.5514 325.045 17.9548 325.045 18.3467C325.045 18.6748 325.223 18.8389 325.579 18.8389C325.797 18.8389 326.025 18.7796 326.262 18.6611L326.351 19.4883C326.032 19.6888 325.667 19.7891 325.257 19.7891C324.852 19.7891 324.53 19.6706 324.293 19.4336C324.061 19.1966 323.945 18.8822 323.945 18.4902C323.945 17.998 324.168 17.5469 324.615 17.1367C323.621 17.1185 322.819 16.7812 322.208 16.125C321.602 15.4642 321.299 14.5892 321.299 13.5V13.2744C321.299 12.5407 321.438 11.8867 321.716 11.3125C321.999 10.7337 322.391 10.2826 322.892 9.95898C323.398 9.63086 323.945 9.4668 324.533 9.4668C325.494 9.4668 326.242 9.78353 326.775 10.417C327.308 11.0505 327.575 11.9574 327.575 13.1377V13.6641H322.564C322.582 14.3932 322.794 14.9834 323.2 15.4346C323.61 15.8812 324.129 16.1045 324.758 16.1045C325.205 16.1045 325.583 16.0133 325.893 15.8311C326.203 15.6488 326.474 15.4072 326.706 15.1064L327.479 15.708ZM324.533 10.5059C324.022 10.5059 323.594 10.6927 323.247 11.0664C322.901 11.4355 322.687 11.9551 322.605 12.625H326.31V12.5293C326.274 11.8867 326.1 11.39 325.79 11.0391C325.481 10.6836 325.061 10.5059 324.533 10.5059ZM334.868 13.1035V17H333.555V7.04688H337.226C338.315 7.04688 339.168 7.32487 339.783 7.88086C340.403 8.43685 340.712 9.17285 340.712 10.0889C340.712 11.055 340.409 11.8001 339.803 12.3242C339.202 12.8438 338.338 13.1035 337.212 13.1035H334.868ZM334.868 12.0303H337.226C337.928 12.0303 338.466 11.8662 338.839 11.5381C339.213 11.2054 339.4 10.7269 339.4 10.1025C339.4 9.51009 339.213 9.03613 338.839 8.68066C338.466 8.3252 337.953 8.14062 337.301 8.12695H334.868V12.0303ZM346.184 10.7383C345.993 10.7064 345.786 10.6904 345.562 10.6904C344.733 10.6904 344.17 11.0436 343.874 11.75V17H342.609V9.60352H343.84L343.86 10.458C344.275 9.7972 344.863 9.4668 345.624 9.4668C345.87 9.4668 346.057 9.4987 346.184 9.5625V10.7383ZM350.316 15.1475L352.039 9.60352H353.392L350.419 18.1416C349.958 19.3721 349.227 19.9873 348.224 19.9873L347.985 19.9668L347.513 19.8779V18.8525L347.855 18.8799C348.284 18.8799 348.616 18.7933 348.853 18.6201C349.095 18.4469 349.293 18.1302 349.448 17.6699L349.728 16.918L347.09 9.60352H348.47L350.316 15.1475ZM361.496 15.2568L362.918 9.60352H364.182L362.029 17H361.004L359.206 11.3945L357.456 17H356.431L354.284 9.60352H355.542L356.998 15.1406L358.721 9.60352H359.739L361.496 15.2568ZM370.461 17C370.388 16.8542 370.329 16.5944 370.283 16.2207C369.695 16.8314 368.993 17.1367 368.178 17.1367C367.448 17.1367 366.849 16.9316 366.38 16.5215C365.915 16.1068 365.683 15.5827 365.683 14.9492C365.683 14.179 365.974 13.582 366.558 13.1582C367.145 12.7298 367.97 12.5156 369.032 12.5156H370.263V11.9346C370.263 11.4925 370.13 11.1416 369.866 10.8818C369.602 10.6175 369.212 10.4854 368.697 10.4854C368.246 10.4854 367.868 10.5993 367.562 10.8271C367.257 11.055 367.104 11.3307 367.104 11.6543H365.833C365.833 11.2852 365.963 10.9297 366.223 10.5879C366.487 10.2415 366.842 9.9681 367.289 9.76758C367.74 9.56706 368.235 9.4668 368.772 9.4668C369.625 9.4668 370.292 9.68099 370.775 10.1094C371.258 10.5332 371.509 11.1188 371.527 11.8662V15.2705C371.527 15.9495 371.614 16.4896 371.787 16.8906V17H370.461ZM368.362 16.0361C368.759 16.0361 369.135 15.9336 369.49 15.7285C369.846 15.5234 370.103 15.2568 370.263 14.9287V13.4111H369.271C367.722 13.4111 366.947 13.8646 366.947 14.7715C366.947 15.168 367.079 15.4779 367.344 15.7012C367.608 15.9245 367.947 16.0361 368.362 16.0361ZM375.646 7.8125V9.60352H377.026V10.5811H375.646V15.168C375.646 15.4642 375.707 15.6875 375.83 15.8379C375.953 15.9837 376.163 16.0566 376.459 16.0566C376.605 16.0566 376.805 16.0293 377.061 15.9746V17C376.728 17.0911 376.404 17.1367 376.09 17.1367C375.525 17.1367 375.099 16.9658 374.812 16.624C374.524 16.2822 374.381 15.7969 374.381 15.168V10.5811H373.034V9.60352H374.381V7.8125H375.646ZM380.126 9.60352L380.167 10.5332C380.732 9.82227 381.47 9.4668 382.382 9.4668C383.945 9.4668 384.733 10.3486 384.747 12.1123V17H383.483V12.1055C383.478 11.5723 383.355 11.1781 383.113 10.9229C382.876 10.6676 382.505 10.54 381.999 10.54C381.589 10.54 381.229 10.6494 380.919 10.8682C380.609 11.0869 380.368 11.374 380.194 11.7295V17H378.93V9.60352H380.126ZM386.739 13.2334C386.739 12.5088 386.881 11.8571 387.163 11.2783C387.45 10.6995 387.847 10.2529 388.353 9.93848C388.863 9.62402 389.444 9.4668 390.096 9.4668C391.103 9.4668 391.916 9.81543 392.536 10.5127C393.161 11.21 393.473 12.1374 393.473 13.2949V13.3838C393.473 14.1038 393.334 14.751 393.056 15.3252C392.782 15.8949 392.388 16.3392 391.873 16.6582C391.363 16.9772 390.775 17.1367 390.11 17.1367C389.107 17.1367 388.293 16.7881 387.669 16.0908C387.049 15.3936 386.739 14.4707 386.739 13.3223V13.2334ZM388.011 13.3838C388.011 14.2041 388.2 14.8626 388.578 15.3594C388.961 15.8561 389.472 16.1045 390.11 16.1045C390.752 16.1045 391.263 15.8538 391.641 15.3525C392.019 14.8467 392.208 14.1403 392.208 13.2334C392.208 12.4222 392.014 11.766 391.627 11.2646C391.244 10.7588 390.734 10.5059 390.096 10.5059C389.472 10.5059 388.968 10.7542 388.585 11.251C388.202 11.7477 388.011 12.4587 388.011 13.3838ZM399.785 15.0381C399.785 14.6963 399.656 14.432 399.396 14.2451C399.141 14.0537 398.692 13.8896 398.049 13.7529C397.411 13.6162 396.903 13.4521 396.525 13.2607C396.151 13.0693 395.873 12.8415 395.691 12.5771C395.513 12.3128 395.424 11.9984 395.424 11.6338C395.424 11.0277 395.679 10.515 396.19 10.0957C396.705 9.67643 397.361 9.4668 398.158 9.4668C398.997 9.4668 399.676 9.68327 400.196 10.1162C400.72 10.5492 400.982 11.1029 400.982 11.7773H399.71C399.71 11.431 399.562 11.1325 399.266 10.8818C398.974 10.6312 398.605 10.5059 398.158 10.5059C397.698 10.5059 397.338 10.6061 397.078 10.8066C396.819 11.0072 396.689 11.2692 396.689 11.5928C396.689 11.8981 396.809 12.1283 397.051 12.2832C397.293 12.4382 397.728 12.5863 398.357 12.7275C398.99 12.8688 399.503 13.0374 399.895 13.2334C400.287 13.4294 400.576 13.6663 400.763 13.9443C400.954 14.2178 401.05 14.5527 401.05 14.9492C401.05 15.61 400.786 16.141 400.257 16.542C399.728 16.9385 399.043 17.1367 398.199 17.1367C397.607 17.1367 397.083 17.0319 396.627 16.8223C396.171 16.6126 395.814 16.321 395.554 15.9473C395.299 15.569 395.171 15.1611 395.171 14.7236H396.436C396.459 15.1475 396.627 15.4847 396.942 15.7354C397.261 15.9814 397.68 16.1045 398.199 16.1045C398.678 16.1045 399.061 16.0088 399.348 15.8174C399.64 15.6214 399.785 15.3617 399.785 15.0381ZM398.986 6.5H400.517L398.685 8.50977H397.666L398.986 6.5ZM406.084 16.1045C406.535 16.1045 406.93 15.9678 407.267 15.6943C407.604 15.4209 407.791 15.0791 407.827 14.6689H409.024C409.001 15.0928 408.855 15.4961 408.586 15.8789C408.317 16.2617 407.957 16.5671 407.506 16.7949C407.06 17.0228 406.586 17.1367 406.084 17.1367C405.077 17.1367 404.275 16.8018 403.678 16.1318C403.086 15.4574 402.789 14.5368 402.789 13.3701V13.1582C402.789 12.4382 402.922 11.7979 403.186 11.2373C403.45 10.6768 403.828 10.2415 404.321 9.93164C404.817 9.62174 405.403 9.4668 406.077 9.4668C406.907 9.4668 407.595 9.71517 408.142 10.2119C408.693 10.7087 408.987 11.3535 409.024 12.1465H407.827C407.791 11.668 407.609 11.276 407.281 10.9707C406.957 10.6608 406.556 10.5059 406.077 10.5059C405.435 10.5059 404.936 10.7383 404.58 11.2031C404.229 11.6634 404.054 12.3311 404.054 13.2061V13.4453C404.054 14.2975 404.229 14.9538 404.58 15.4141C404.931 15.8743 405.433 16.1045 406.084 16.1045ZM412.24 17H410.975V9.60352H412.24V17ZM410.872 7.6416C410.872 7.43652 410.934 7.26335 411.057 7.12207C411.185 6.98079 411.371 6.91016 411.618 6.91016C411.864 6.91016 412.051 6.98079 412.178 7.12207C412.306 7.26335 412.37 7.43652 412.37 7.6416C412.37 7.84668 412.306 8.01758 412.178 8.1543C412.051 8.29102 411.864 8.35938 411.618 8.35938C411.371 8.35938 411.185 8.29102 411.057 8.1543C410.934 8.01758 410.872 7.84668 410.872 7.6416ZM414.717 16.3369C414.717 16.1182 414.781 15.9359 414.909 15.79C415.041 15.6442 415.237 15.5713 415.497 15.5713C415.756 15.5713 415.952 15.6442 416.084 15.79C416.221 15.9359 416.29 16.1182 416.29 16.3369C416.29 16.5465 416.221 16.722 416.084 16.8633C415.952 17.0046 415.756 17.0752 415.497 17.0752C415.237 17.0752 415.041 17.0046 414.909 16.8633C414.781 16.722 414.717 16.5465 414.717 16.3369Z" fill="#2196F3"/>
<path d="M194.572 18.3672H264.415V19.0508H194.572V18.3672ZM276.024 18.3672H417.417V19.0508H276.024V18.3672Z" fill="#2196F3"/>
</svg>
